<?xml version="1.0" encoding="UTF-8" standalone="no"?> <svg xmlns:dc="http://purl.org/dc/elements/1.1/" xmlns:cc="http://creativecommons.org/ns#" xmlns:rdf="http://www.w3.org/1999/02/22-rdf-syntax-ns#" xmlns:svg="http://www.w3.org/2000/svg" xmlns="http://www.w3.org/2000/svg" viewBox="0 0 280 120" height="120" width="280" xml:space="preserve" id="svg2" version="1.1"><metadata id="metadata8"></metadata><defs id="defs6"><clipPath id="clipPath38"><path id="path36" d="M 0,90 H 210 V 0 H 0 Z"></path></clipPath></defs><g transform="matrix(1.3333333,0,0,-1.3333333,0,120)" id="g10"><g transform="translate(76.1826,59.2861)" id="g12"><path id="path14" style="fill:#007f40;fill-opacity:1;fill-rule:nonzero;stroke:none" d="m 0,0 h -10.647 l 2.898,11.389 H 2.898 Z"></path></g><g transform="translate(72.9697,46.2134)" id="g16"><path id="path18" style="fill:#007f40;fill-opacity:1;fill-rule:nonzero;stroke:none" d="M 0,0 H -10.649 L -7.75,11.39 H 2.897 Z"></path></g><g transform="translate(64.2759,62.2627)" id="g20"><path id="path22" style="fill:#007f40;fill-opacity:1;fill-rule:nonzero;stroke:none" d="m 0,0 h -7.864 l 2.141,8.412 h 7.864 z"></path></g><g transform="translate(61.8198,51.9067)" id="g24"><path id="path26" style="fill:#007f40;fill-opacity:1;fill-rule:nonzero;stroke:none" d="m 0,0 h -7.865 l 2.141,8.413 h 7.865 z"></path></g><g transform="translate(54.6333,63.6851)" id="g28"><path id="path30" style="fill:#007f40;fill-opacity:1;fill-rule:nonzero;stroke:none" d="m 0,0 h -6.533 l 1.778,6.99 h 6.534 z"></path></g><g id="g32"><g clip-path="url(#clipPath38)" id="g34"><g transform="translate(111.5391,31.4199)" id="g40"><path id="path42" style="fill:#312782;fill-opacity:1;fill-rule:nonzero;stroke:none" d="m 0,0 h -39.618 l -3.06,-12.045 H 0 c 8.99,0 16.513,6.35 18.446,14.861 H 5.669 C 4.371,1.1 2.314,0 0,0"></path></g><g transform="translate(112.0439,58.4019)" id="g44"><path id="path46" style="fill:#312782;fill-opacity:1;fill-rule:nonzero;stroke:none" d="m 0,0 -21.201,-0.075 3.613,14.953 H 0 c 3.925,0 7.106,-3.706 7.106,-7.68 C 7.106,3.222 3.925,0 0,0 m 13.16,-6.584 c 3.559,3.487 5.774,8.371 5.774,13.782 0,10.59 -8.478,19.743 -18.934,19.743 h -29.605 -0.149 -44.724 c -17.985,0 -32.566,-14.767 -32.566,-32.983 0,-18.218 14.581,-32.985 32.566,-32.985 h 28.532 l 2.832,12.045 h -31.364 c -11.417,0 -20.672,9.375 -20.672,20.94 0,11.563 9.255,20.938 20.672,20.938 h 44.724 l 0.149,-0.018 -6.828,-27.066 h 35.928 c 2.635,0 4.933,-1.663 6.159,-3.958 h 12.419 c -0.71,3.67 -2.455,6.965 -4.913,9.562"></path></g><g transform="translate(177.5039,57.8833)" id="g48"><path id="path50" style="fill:#312782;fill-opacity:1;fill-rule:nonzero;stroke:none" d="m 0,0 h -0.261 -4.438 -17.184 -4.439 c -3.925,0 -7.108,3.224 -7.108,7.199 0,3.976 3.183,7.2 7.108,7.2 v 0.009 h 44.327 l 2.951,12.047 h -47.278 -0.26 c -10.5,0 -19.011,-8.622 -19.011,-19.256 0,-10.633 8.511,-19.254 19.011,-19.254 h 0.26 4.439 17.184 4.438 c 2.62,0 4.907,-1.436 6.139,-3.572 H 18.669 C 16.993,-6.729 9.274,0 0,0"></path></g><g transform="translate(177.2432,31.4297)" id="g52"><path id="path54" style="fill:#312782;fill-opacity:1;fill-rule:nonzero;stroke:none" d="m 0,0 v -0.01 h -45.176 l -2.95,-12.045 H 0 0.261 c 9.007,0 16.545,6.345 18.508,14.862 H 5.629 C 4.329,1.101 2.292,0 0,0"></path></g><g transform="translate(36.2202,33.0967)" id="g56"><path id="path58" style="fill:#007f40;fill-opacity:1;fill-rule:nonzero;stroke:none" d="m 0,0 c -8.812,0 -17.862,8.759 -17.862,19.37 0,1.853 0.219,3.646 0.627,5.344 0,0 3.554,-14.416 17.235,-14.416 H 168.78 L 165.2,0 Z"></path></g><g transform="translate(35.7183,4.6572)" id="g60"><path id="path62" style="fill:#007f40;fill-opacity:1;fill-rule:nonzero;stroke:none" d="m 0,0 c -2.207,0 -3.76,1.416 -3.76,3.474 0,1.198 0.468,2.211 1.389,3.005 1.005,0.872 2.242,1.22 3.89,1.22 0.711,0 1.412,-0.088 2.089,-0.271 L 3.386,6.065 C 2.708,6.218 2.114,6.294 1.577,6.294 c -2.243,0 -3.574,-1.144 -3.574,-2.842 0,-1.263 0.852,-2.015 2.312,-2.015 0.83,0 1.729,0.316 2.488,0.915 L 2.499,0.545 C 1.717,0.185 0.864,0 0,0"></path></g><g transform="translate(40.9272,12.2256)" id="g64"><path id="path66" style="fill:#007f40;fill-opacity:1;fill-rule:nonzero;stroke:none" d="M 0,0 H 4.962 L 4.752,-1.317 H 1.505 l -0.268,-1.7 H 4.11 L 3.9,-4.28 H 1.039 L 0.723,-6.218 h 4.158 l -0.199,-1.22 h -5.873 z"></path></g><g transform="translate(48.7983,5.9854)" id="g68"><path id="path70" style="fill:#007f40;fill-opacity:1;fill-rule:nonzero;stroke:none" d="m 0,0 c 0.735,0 1.19,0.37 1.19,0.839 0,0.566 -0.595,0.816 -1.518,1.372 -0.981,0.588 -1.471,1.208 -1.471,1.916 0,1.242 1.156,2.233 2.861,2.233 0.724,0 1.448,-0.174 2.207,-0.534 L 3,4.487 c -0.724,0.37 -1.342,0.555 -1.892,0.555 -0.711,0 -1.155,-0.326 -1.155,-0.751 0,-0.544 0.654,-0.741 1.529,-1.328 0.912,-0.61 1.414,-1.101 1.414,-1.961 0,-1.361 -1.099,-2.33 -2.721,-2.33 -0.934,0 -1.787,0.25 -2.662,0.763 l 0.256,1.306 C -1.355,0.262 -0.643,0 0,0"></path></g><g transform="translate(55.501,10.9619)" id="g72"><path id="path74" style="fill:#007f40;fill-opacity:1;fill-rule:nonzero;stroke:none" d="m 0,0 h -2.569 l 0.187,1.264 H 4.473 L 4.285,0 H 1.751 L 0.759,-6.175 h -1.752 z"></path></g><g transform="translate(62.7529,7.499)" id="g76"><path id="path78" style="fill:#007f40;fill-opacity:1;fill-rule:nonzero;stroke:none" d="M 0,0 -0.457,2.843 -1.81,0 Z m -1.168,4.727 h 1.95 L 2.125,-2.712 H 0.443 l -0.268,1.623 h -2.488 l -0.758,-1.623 h -1.904 z"></path></g><g transform="translate(67.7744,5.9854)" id="g80"><path id="path82" style="fill:#007f40;fill-opacity:1;fill-rule:nonzero;stroke:none" d="m 0,0 c 0.736,0 1.191,0.37 1.191,0.839 0,0.566 -0.595,0.816 -1.518,1.372 -0.981,0.588 -1.471,1.208 -1.471,1.916 0,1.242 1.156,2.233 2.86,2.233 0.725,0 1.448,-0.174 2.208,-0.534 L 3,4.487 c -0.723,0.37 -1.342,0.555 -1.891,0.555 -0.712,0 -1.156,-0.326 -1.156,-0.751 0,-0.544 0.654,-0.741 1.53,-1.328 0.911,-0.61 1.413,-1.101 1.413,-1.961 0,-1.361 -1.098,-2.33 -2.721,-2.33 -0.934,0 -1.787,0.25 -2.662,0.763 L -2.23,0.741 C -1.354,0.262 -0.642,0 0,0"></path></g><g transform="translate(78.0854,9.3066)" id="g84"><path id="path86" style="fill:#007f40;fill-opacity:1;fill-rule:nonzero;stroke:none" d="m 0,0 c 0.899,0 1.343,0.294 1.343,0.915 0,0.577 -0.421,0.871 -1.261,0.871 H -0.63 L -0.911,0 Z m -0.07,-3.343 c 1.098,0 1.681,0.425 1.681,1.132 0,0.861 -0.607,1.09 -1.938,1.09 h -0.77 l -0.362,-2.222 z m -2.113,6.262 h 1.529 c 0.968,0 1.728,0 2.277,-0.164 C 2.499,2.505 2.99,1.895 2.99,1.09 2.99,0.37 2.604,-0.174 1.892,-0.468 2.827,-0.827 3.329,-1.491 3.329,-2.319 3.329,-2.929 3.048,-3.474 2.511,-3.887 1.834,-4.41 0.946,-4.52 -0.303,-4.52 h -3.072 z"></path></g><g transform="translate(85.4199,12.9336)" id="g88"><path id="path90" style="fill:#007f40;fill-opacity:1;fill-rule:nonzero;stroke:none" d="M 0,0 1.261,1.851 H 2.474 L 0.747,0 Z m 0.934,-5.435 -0.455,2.843 -1.355,-2.843 z m -1.168,4.727 h 1.95 L 3.059,-8.146 H 1.377 l -0.269,1.623 h -2.487 l -0.758,-1.623 h -1.904 z"></path></g><g transform="translate(91.375,5.9854)" id="g92"><path id="path94" style="fill:#007f40;fill-opacity:1;fill-rule:nonzero;stroke:none" d="m 0,0 c 0.736,0 1.191,0.37 1.191,0.839 0,0.566 -0.596,0.816 -1.518,1.372 -0.98,0.588 -1.471,1.208 -1.471,1.916 0,1.242 1.156,2.233 2.86,2.233 0.725,0 1.449,-0.174 2.208,-0.534 L 3.001,4.487 C 2.277,4.857 1.658,5.042 1.11,5.042 c -0.713,0 -1.156,-0.326 -1.156,-0.751 0,-0.544 0.653,-0.741 1.529,-1.328 0.911,-0.61 1.413,-1.101 1.413,-1.961 0,-1.361 -1.097,-2.33 -2.721,-2.33 -0.934,0 -1.786,0.25 -2.662,0.763 l 0.258,1.306 C -1.354,0.262 -0.642,0 0,0"></path></g><g transform="translate(96.397,12.2256)" id="g96"><path id="path98" style="fill:#007f40;fill-opacity:1;fill-rule:nonzero;stroke:none" d="M 0,0 H 1.775 L 0.583,-7.438 H -1.18 Z"></path></g><g transform="translate(102.5386,4.6572)" id="g100"><path id="path102" style="fill:#007f40;fill-opacity:1;fill-rule:nonzero;stroke:none" d="m 0,0 c -2.207,0 -3.76,1.416 -3.76,3.474 0,1.198 0.467,2.211 1.39,3.005 1.004,0.872 2.243,1.22 3.889,1.22 0.712,0 1.412,-0.088 2.089,-0.271 L 3.387,6.065 c -0.678,0.153 -1.273,0.229 -1.81,0.229 -2.242,0 -3.574,-1.144 -3.574,-2.842 0,-1.263 0.853,-2.015 2.313,-2.015 0.829,0 1.728,0.316 2.487,0.915 L 2.5,0.545 C 1.717,0.185 0.865,0 0,0"></path></g><g transform="translate(110.7607,7.499)" id="g104"><path id="path106" style="fill:#007f40;fill-opacity:1;fill-rule:nonzero;stroke:none" d="M 0,0 -0.456,2.843 -1.811,0 Z M -1.167,4.727 H 0.781 L 2.125,-2.712 H 0.443 l -0.269,1.623 h -2.487 l -0.758,-1.623 h -1.904 z"></path></g><g transform="translate(115.7813,5.9854)" id="g108"><path id="path110" style="fill:#007f40;fill-opacity:1;fill-rule:nonzero;stroke:none" d="m 0,0 c 0.736,0 1.191,0.37 1.191,0.839 0,0.566 -0.595,0.816 -1.518,1.372 -0.98,0.588 -1.47,1.208 -1.47,1.916 0,1.242 1.156,2.233 2.859,2.233 0.725,0 1.45,-0.174 2.209,-0.534 L 3.002,4.487 C 2.277,4.857 1.659,5.042 1.11,5.042 c -0.713,0 -1.156,-0.326 -1.156,-0.751 0,-0.544 0.653,-0.741 1.53,-1.328 0.911,-0.61 1.412,-1.101 1.412,-1.961 0,-1.361 -1.097,-2.33 -2.72,-2.33 -0.934,0 -1.786,0.25 -2.663,0.763 l 0.258,1.306 C -1.354,0.262 -0.641,0 0,0"></path></g><g transform="translate(125.0771,5.9854)" id="g112"><path id="path114" style="fill:#007f40;fill-opacity:1;fill-rule:nonzero;stroke:none" d="m 0,0 c 0.735,0 1.19,0.37 1.19,0.839 0,0.566 -0.594,0.816 -1.516,1.372 -0.981,0.588 -1.472,1.208 -1.472,1.916 0,1.242 1.156,2.233 2.86,2.233 0.725,0 1.449,-0.174 2.208,-0.534 L 3.001,4.487 C 2.277,4.857 1.658,5.042 1.11,5.042 c -0.713,0 -1.156,-0.326 -1.156,-0.751 0,-0.544 0.653,-0.741 1.529,-1.328 0.911,-0.61 1.413,-1.101 1.413,-1.961 0,-1.361 -1.098,-2.33 -2.72,-2.33 -0.935,0 -1.787,0.25 -2.663,0.763 L -2.23,0.741 C -1.354,0.262 -0.642,0 0,0"></path></g><g transform="translate(130.8574,8.1855)" id="g116"><path id="path118" style="fill:#007f40;fill-opacity:1;fill-rule:nonzero;stroke:none" d="m 0,0 c 0,-1.329 0.76,-2.124 1.975,-2.124 1.54,0 2.697,1.155 2.697,2.853 0,1.198 -0.841,2.047 -1.985,2.047 C 1.156,2.776 0,1.611 0,0 M -0.63,2.776 C 0.245,3.669 1.46,4.16 2.769,4.16 3.689,4.16 4.473,3.953 5.104,3.506 5.979,2.896 6.469,1.917 6.469,0.795 6.469,-0.349 6.072,-1.372 5.325,-2.124 4.414,-3.049 3.247,-3.517 1.893,-3.517 c -0.935,0 -1.706,0.206 -2.325,0.642 -0.851,0.599 -1.366,1.623 -1.366,2.723 0,1.165 0.386,2.133 1.168,2.928"></path></g><g transform="translate(140.9248,8.9697)" id="g120"><path id="path122" style="fill:#007f40;fill-opacity:1;fill-rule:nonzero;stroke:none" d="m 0,0 c 1.226,0 1.81,0.294 1.81,1.034 0,0.687 -0.514,1.002 -1.577,1.002 -0.175,0 -0.362,0 -0.573,-0.021 L -0.655,0.021 C -0.421,0.011 -0.199,0 0,0 m -1.869,3.256 h 1.833 C 1.062,3.256 1.844,3.201 2.37,2.94 3.116,2.569 3.572,1.873 3.572,1.078 3.572,0.054 2.941,-0.687 1.844,-0.915 2.358,-1.176 2.954,-2.287 3.829,-4.183 H 1.984 C 1.354,-2.995 0.98,-2.2 0.723,-1.83 c -0.326,0.468 -0.689,0.654 -1.284,0.654 -0.094,0 -0.187,0 -0.292,-0.011 L -1.331,-4.183 H -3.06 Z"></path></g><g transform="translate(147.0908,8.1855)" id="g124"><path id="path126" style="fill:#007f40;fill-opacity:1;fill-rule:nonzero;stroke:none" d="m 0,0 c 0,-1.329 0.759,-2.124 1.973,-2.124 1.541,0 2.697,1.155 2.697,2.853 0,1.198 -0.841,2.047 -1.985,2.047 C 1.155,2.776 0,1.611 0,0 M -0.631,2.776 C 0.245,3.669 1.459,4.16 2.768,4.16 3.689,4.16 4.472,3.953 5.102,3.506 5.978,2.896 6.469,1.917 6.469,0.795 6.469,-0.349 6.071,-1.372 5.324,-2.124 4.413,-3.049 3.246,-3.517 1.891,-3.517 c -0.934,0 -1.705,0.206 -2.324,0.642 -0.852,0.599 -1.366,1.623 -1.366,2.723 0,1.165 0.386,2.133 1.168,2.928"></path></g><g transform="translate(158.0674,4.6572)" id="g128"><path id="path130" style="fill:#007f40;fill-opacity:1;fill-rule:nonzero;stroke:none" d="m 0,0 c -2.207,0 -3.76,1.416 -3.76,3.474 0,1.198 0.467,2.211 1.39,3.005 1.003,0.872 2.241,1.22 3.888,1.22 0.711,0 1.413,-0.088 2.09,-0.271 L 3.386,6.065 C 2.709,6.218 2.113,6.294 1.577,6.294 c -2.243,0 -3.574,-1.144 -3.574,-2.842 0,-1.263 0.852,-2.015 2.311,-2.015 0.831,0 1.73,0.316 2.488,0.915 L 2.498,0.545 C 1.717,0.185 0.863,0 0,0"></path></g><g transform="translate(166.2881,7.499)" id="g132"><path id="path134" style="fill:#007f40;fill-opacity:1;fill-rule:nonzero;stroke:none" d="M 0,0 -0.454,2.843 -1.81,0 Z m -1.167,4.727 h 1.95 L 2.125,-2.712 H 0.444 l -0.268,1.623 h -2.487 l -0.76,-1.623 h -1.904 z"></path></g><g transform="translate(172.3262,9.3066)" id="g136"><path id="path138" style="fill:#007f40;fill-opacity:1;fill-rule:nonzero;stroke:none" d="m 0,0 c 0.899,0 1.343,0.294 1.343,0.915 0,0.577 -0.421,0.871 -1.262,0.871 H -0.631 L -0.911,0 Z m -0.07,-3.343 c 1.098,0 1.681,0.425 1.681,1.132 0,0.861 -0.607,1.09 -1.938,1.09 h -0.771 l -0.361,-2.222 z m -2.114,6.262 h 1.53 c 0.968,0 1.728,0 2.277,-0.164 0.876,-0.25 1.366,-0.86 1.366,-1.665 0,-0.72 -0.385,-1.264 -1.097,-1.558 0.934,-0.359 1.435,-1.023 1.435,-1.851 0,-0.61 -0.279,-1.155 -0.816,-1.568 C 1.833,-4.41 0.945,-4.52 -0.304,-4.52 h -3.071 z"></path></g><g transform="translate(180.5937,7.499)" id="g140"><path id="path142" style="fill:#007f40;fill-opacity:1;fill-rule:nonzero;stroke:none" d="M 0,0 -0.455,2.843 -1.81,0 Z M -1.168,4.727 H 0.783 L 2.125,-2.712 H 0.443 L 0.176,-1.089 H -2.312 L -3.07,-2.712 h -1.905 z"></path></g></g></g></g></svg> 